# xmcd CD database file
#
# Track frame offsets:
#	150
#	15060
#	31924
#	50770
#	66450
#	82708
#	102863
#	120343
#	134260
#	147446
#	171304
#
# Disc length: 2504 seconds
#
# Revision: 0
# Processed by: cddbd v1.5.1PL0 Copyright (c) Steve Scherf et al.
# Submitted via: CDex 1.40Beta9
#
DISCID=8909c60b
DTITLE=Gretchen Wilson - Gretchen Wilson
DYEAR=1900
DGENRE=Country
TTITLE0=Here for the Party
TTITLE1=Redneck Woman
TTITLE2=When I think about Cheatin'
TTITLE3=Homewrecker
TTITLE4=Holdin' You
TTITLE5=Chariot
TTITLE6=What Happened
TTITLE7=When it Rains
TTITLE8=The Bed
TTITLE9=Pocahontas Proud
TTITLE10=Redneck Woman
EXTD=ID3G: 2
EXTT0=
EXTT1=
EXTT2=
EXTT3=
EXTT4=
EXTT5=
EXTT6=
EXTT7=
EXTT8=
EXTT9=
EXTT10=
PLAYORDER=
